<svg width="18" height="12" viewBox="0 0 18 12" fill="none" xmlns="http://www.w3.org/2000/svg">
<path fill-rule="evenodd" clip-rule="evenodd" d="M0.75 6C2.0475 2.7075 5.25 0.375 9 0.375C12.75 0.375 15.9525 2.7075 17.25 6C15.9525 9.2925 12.75 11.625 9 11.625C5.25 11.625 2.0475 9.2925 0.75 6ZM15.615 6C14.3775 3.4725 11.8425 1.875 9 1.875C6.1575 1.875 3.6225 3.4725 2.385 6C3.6225 8.5275 6.1575 10.125 9 10.125C11.8425 10.125 14.3775 8.5275 15.615 6ZM9 4.125C10.035 4.125 10.875 4.965 10.875 6C10.875 7.035 10.035 7.875 9 7.875C7.965 7.875 7.125 7.035 7.125 6C7.125 4.965 7.965 4.125 9 4.125ZM5.625 6C5.625 4.14 7.14 2.625 9 2.625C10.86 2.625 12.375 4.14 12.375 6C12.375 7.86 10.86 9.375 9 9.375C7.14 9.375 5.625 7.86 5.625 6Z" fill="#525252"/>
</svg>
