<svg width="18" height="17" viewBox="0 0 18 17" fill="none" xmlns="http://www.w3.org/2000/svg">
<path d="M10.6667 4.00008V2.33341H7.33342V4.00008H10.6667ZM2.33341 5.66675V14.8334H15.6667V5.66675H2.33341ZM15.6667 4.00008C16.5917 4.00008 17.3334 4.74175 17.3334 5.66675V14.8334C17.3334 15.7584 16.5917 16.5001 15.6667 16.5001H2.33341C1.40841 16.5001 0.666748 15.7584 0.666748 14.8334L0.675081 5.66675C0.675081 4.74175 1.40841 4.00008 2.33341 4.00008H5.66675V2.33341C5.66675 1.40841 6.40841 0.666748 7.33342 0.666748H10.6667C11.5917 0.666748 12.3334 1.40841 12.3334 2.33341V4.00008H15.6667Z" fill="black"/>
</svg>
