<svg width="14" height="14" viewBox="0 0 14 14" fill="none" xmlns="http://www.w3.org/2000/svg">
<path d="M6.33337 9.00004H7.66671V10.3334H6.33337V9.00004ZM6.33337 3.66671H7.66671V7.66671H6.33337V3.66671ZM6.99337 0.333374C3.31337 0.333374 0.333374 3.32004 0.333374 7.00004C0.333374 10.68 3.31337 13.6667 6.99337 13.6667C10.68 13.6667 13.6667 10.68 13.6667 7.00004C13.6667 3.32004 10.68 0.333374 6.99337 0.333374ZM7.00004 12.3334C4.05337 12.3334 1.66671 9.94671 1.66671 7.00004C1.66671 4.05337 4.05337 1.66671 7.00004 1.66671C9.94671 1.66671 12.3334 4.05337 12.3334 7.00004C12.3334 9.94671 9.94671 12.3334 7.00004 12.3334Z" fill="black"/>
</svg>
